<svg xmlns="http://www.w3.org/2000/svg" viewBox="0 0 512 512" role="img" aria-labelledby="flowAppIconTitle">
  <title id="flowAppIconTitle">flow</title>
  <defs>
    <linearGradient id="flowAppIconBg" x1="76" y1="52" x2="436" y2="460" gradientUnits="userSpaceOnUse">
      <stop offset="0" stop-color="#cceeff"/>
      <stop offset="1" stop-color="#a9dcfb"/>
    </linearGradient>
    <linearGradient id="flowAppIconBlue" x1="90" y1="110" x2="430" y2="370" gradientUnits="userSpaceOnUse">
      <stop offset="0" stop-color="#1f6aa5"/>
      <stop offset="1" stop-color="#0d467c"/>
    </linearGradient>
  </defs>
  <rect width="512" height="512" rx="108" fill="url(#flowAppIconBg)"/>
  <path transform="translate(90 110) scale(0.5)" fill="url(#flowAppIconBlue)" fill-rule="evenodd" d="M 681 168.5 L 680.5 169 L 680.5 178 L 679.5 179 L 679.5 186 L 678.5 187 L 678.5 193 L 677.5 194 L 677.5 198 L 676.5 199 L 676.5 203 L 675.5 204 L 675.5 207 L 674.5 208 L 674.5 211 L 673.5 212 L 673.5 215 L 672.5 216 L 672.5 218 L 671.5 219 L 671.5 221 L 670.5 222 L 670.5 224 L 669.5 225 L 669.5 227 L 668.5 228 L 668.5 230 L 667.5 231 L 667.5 233 L 666.5 234 L 666.5 235 L 665.5 236 L 665.5 238 L 664.5 239 L 664.5 241 L 663.5 242 L 663.5 243 L 662.5 244 L 662.5 246 L 661.5 247 L 661.5 248 L 660.5 249 L 660.5 250 L 659.5 251 L 659.5 252 L 658.5 253 L 658.5 255 L 657.5 256 L 657.5 257 L 656.5 258 L 656.5 259 L 655.5 260 L 655.5 261 L 654.5 262 L 654.5 263 L 653.5 264 L 653.5 265 L 652.5 266 L 652.5 267 L 651.5 268 L 651.5 269 L 650.5 270 L 650.5 271 L 649.5 272 L 649.5 273 L 648.5 274 L 648.5 275 L 647.5 276 L 647.5 277 L 646.5 278 L 646.5 279 L 645.5 280 L 645.5 281 L 643.5 283 L 643.5 284 L 642.5 285 L 642.5 286 L 641.5 287 L 641.5 288 L 639.5 290 L 639.5 291 L 638.5 292 L 638.5 293 L 636.5 295 L 636.5 296 L 634.5 298 L 634.5 299 L 632.5 301 L 632.5 302 L 631.5 303 L 631.5 304 L 628.5 307 L 628.5 308 L 626.5 310 L 626.5 311 L 624.5 313 L 624.5 314 L 622.5 316 L 622.5 317 L 618.5 321 L 618.5 322 L 614.5 326 L 614.5 327 L 612.5 329 L 612.5 330 L 607.5 335 L 607.5 336 L 600.5 343 L 600.5 344 L 587.5 357 L 587.5 358 L 586 359.5 L 585 359.5 L 579 365.5 L 578 365.5 L 575 368.5 L 574 368.5 L 573 369.5 L 572 369.5 L 571 370.5 L 570 370.5 L 569 371.5 L 568 371.5 L 567 372.5 L 566 372.5 L 565 373.5 L 564 373.5 L 563 374.5 L 562 374.5 L 561 375.5 L 559 375.5 L 558 376.5 L 555 376.5 L 554 377.5 L 550 377.5 L 549 378.5 L 532 378.5 L 531 377.5 L 527 377.5 L 526 376.5 L 523 376.5 L 522 375.5 L 520 375.5 L 519 374.5 L 517 374.5 L 516 373.5 L 515 373.5 L 514 372.5 L 513 372.5 L 512 371.5 L 511 371.5 L 510 370.5 L 509 370.5 L 508 369.5 L 507 369.5 L 505 367.5 L 504 367.5 L 501 364.5 L 500 364.5 L 473.5 338 L 473.5 337 L 456.5 320 L 456.5 319 L 450.5 313 L 451.5 312 L 450.5 311 L 460.5 301 L 460.5 300 L 480.5 280 L 480.5 279 L 486 273.5 L 487 273.5 L 498.5 285 L 498.5 286 L 519.5 307 L 519.5 308 L 531 319.5 L 532 319.5 L 533 320.5 L 534 320.5 L 535 321.5 L 543 321.5 L 544 320.5 L 545 320.5 L 546 319.5 L 547 319.5 L 561.5 305 L 561.5 304 L 565.5 300 L 565.5 299 L 571.5 293 L 571.5 292 L 574.5 289 L 574.5 288 L 577.5 285 L 577.5 284 L 580.5 281 L 580.5 280 L 582.5 278 L 582.5 277 L 584.5 275 L 584.5 274 L 586.5 272 L 586.5 271 L 587.5 270 L 587.5 269 L 589.5 267 L 589.5 266 L 591.5 264 L 591.5 263 L 592.5 262 L 592.5 261 L 594.5 259 L 594.5 258 L 595.5 257 L 595.5 256 L 596.5 255 L 596.5 254 L 598.5 252 L 598.5 251 L 599.5 250 L 599.5 249 L 600.5 248 L 600.5 247 L 601.5 246 L 601.5 245 L 602.5 244 L 602.5 243 L 603.5 242 L 603.5 241 L 604.5 240 L 604.5 239 L 605.5 238 L 605.5 236 L 606.5 235 L 606.5 234 L 607.5 233 L 607.5 232 L 608.5 231 L 608.5 230 L 609.5 229 L 609.5 227 L 610.5 226 L 610.5 225 L 611.5 224 L 611.5 222 L 612.5 221 L 612.5 220 L 613.5 219 L 613.5 217 L 614.5 216 L 614.5 214 L 615.5 213 L 615.5 211 L 616.5 210 L 616.5 208 L 617.5 207 L 617.5 205 L 618.5 204 L 618.5 201 L 619.5 200 L 619.5 198 L 620.5 197 L 620.5 193 L 621.5 192 L 621.5 189 L 622.5 188 L 622.5 184 L 623.5 183 L 623.5 177 L 624.5 176 L 624.5 162 L 625.5 161 L 625.5 155 L 624.5 154 L 624.5 143 L 623.5 142 L 623.5 137 L 622.5 136 L 622.5 132 L 621.5 131 L 621.5 128 L 620.5 127 L 620.5 125 L 619.5 124 L 619.5 122 L 618.5 121 L 618.5 119 L 617.5 118 L 617.5 117 L 616.5 116 L 616.5 115 L 615.5 114 L 615.5 113 L 614.5 112 L 614.5 111 L 613.5 110 L 613.5 109 L 612.5 108 L 612.5 107 L 611.5 106 L 611.5 105 L 609.5 103 L 609.5 102 L 608.5 101 L 608.5 100 L 606.5 98 L 606.5 97 L 602.5 93 L 602.5 92 L 591 80.5 L 590 80.5 L 585 75.5 L 584 75.5 L 582 73.5 L 581 73.5 L 579 71.5 L 578 71.5 L 577 70.5 L 576 70.5 L 575 69.5 L 574 69.5 L 573 68.5 L 572 68.5 L 571 67.5 L 570 67.5 L 569 66.5 L 568 66.5 L 567 65.5 L 565 65.5 L 564 64.5 L 563 64.5 L 562 63.5 L 560 63.5 L 559 62.5 L 557 62.5 L 556 61.5 L 554 61.5 L 553 60.5 L 550 60.5 L 549 59.5 L 545 59.5 L 544 58.5 L 538 58.5 L 537 57.5 L 522 57.5 L 521 58.5 L 513 58.5 L 512 59.5 L 507 59.5 L 506 60.5 L 503 60.5 L 502 61.5 L 499 61.5 L 498 62.5 L 496 62.5 L 495 63.5 L 494 63.5 L 493 64.5 L 491 64.5 L 490 65.5 L 488 65.5 L 487 66.5 L 486 66.5 L 485 67.5 L 483 67.5 L 482 68.5 L 481 68.5 L 480 69.5 L 479 69.5 L 478 70.5 L 477 70.5 L 475 72.5 L 474 72.5 L 473 73.5 L 472 73.5 L 471 74.5 L 470 74.5 L 468 76.5 L 467 76.5 L 465 78.5 L 464 78.5 L 461 81.5 L 460 81.5 L 456 85.5 L 455 85.5 L 450 90.5 L 449 90.5 L 401.5 138 L 401.5 139 L 400 140.5 L 399 140.5 L 393 146.5 L 374.5 128 L 374.5 127 L 356.5 109 L 356.5 108 L 358.5 106 L 358.5 105 L 369.5 94 L 369.5 93 L 389.5 73 L 389.5 72 L 397 64.5 L 398 64.5 L 417 45.5 L 418 45.5 L 424 39.5 L 425 39.5 L 427 37.5 L 428 37.5 L 431 34.5 L 432 34.5 L 436 30.5 L 437 30.5 L 439 28.5 L 440 28.5 L 441 27.5 L 442 27.5 L 444 25.5 L 445 25.5 L 447 23.5 L 448 23.5 L 449 22.5 L 450 22.5 L 452 20.5 L 453 20.5 L 454 19.5 L 455 19.5 L 456 18.5 L 457 18.5 L 458 17.5 L 459 17.5 L 460 16.5 L 462 16.5 L 463 15.5 L 464 15.5 L 465 14.5 L 466 14.5 L 467 13.5 L 468 13.5 L 469 12.5 L 470 12.5 L 471 11.5 L 473 11.5 L 474 10.5 L 476 10.5 L 477 9.5 L 479 9.5 L 480 8.5 L 482 8.5 L 483 7.5 L 486 7.5 L 487 6.5 L 489 6.5 L 490 5.5 L 493 5.5 L 494 4.5 L 498 4.5 L 499 3.5 L 503 3.5 L 504 2.5 L 509 2.5 L 510 1.5 L 516 1.5 L 517 0.5 L 542 0.5 L 543 1.5 L 551 1.5 L 552 2.5 L 558 2.5 L 559 3.5 L 564 3.5 L 565 4.5 L 567 4.5 L 568 5.5 L 571 5.5 L 572 6.5 L 574 6.5 L 575 7.5 L 577 7.5 L 578 8.5 L 580 8.5 L 581 9.5 L 583 9.5 L 584 10.5 L 586 10.5 L 587 11.5 L 588 11.5 L 589 12.5 L 590 12.5 L 591 13.5 L 593 13.5 L 594 14.5 L 595 14.5 L 596 15.5 L 597 15.5 L 598 16.5 L 599 16.5 L 600 17.5 L 601 17.5 L 603 19.5 L 604 19.5 L 605 20.5 L 606 20.5 L 608 22.5 L 609 22.5 L 610 23.5 L 611 23.5 L 614 26.5 L 615 26.5 L 617 28.5 L 618 28.5 L 621 31.5 L 622 31.5 L 628 37.5 L 629 37.5 L 643.5 52 L 643.5 53 L 648.5 58 L 648.5 59 L 651.5 62 L 651.5 63 L 654.5 66 L 654.5 67 L 656.5 69 L 656.5 70 L 658.5 72 L 658.5 73 L 659.5 74 L 659.5 75 L 660.5 76 L 660.5 77 L 662.5 79 L 662.5 80 L 663.5 81 L 663.5 82 L 664.5 83 L 664.5 85 L 665.5 86 L 665.5 87 L 666.5 88 L 666.5 89 L 668.5 91 L 668.5 93 L 669.5 94 L 669.5 95 L 670.5 96 L 670.5 98 L 671.5 99 L 671.5 101 L 672.5 102 L 672.5 104 L 673.5 105 L 673.5 107 L 674.5 108 L 674.5 111 L 675.5 112 L 675.5 115 L 676.5 116 L 676.5 119 L 677.5 120 L 677.5 124 L 678.5 125 L 678.5 130 L 679.5 131 L 679.5 137 L 680.5 138 L 680.5 144 L 681 144.5 Z M 0 348.5 L 0.5 348 L 0.5 342 L 1.5 341 L 1.5 335 L 2.5 334 L 2.5 330 L 3.5 329 L 3.5 325 L 4.5 324 L 4.5 319 L 5.5 318 L 5.5 316 L 6.5 315 L 6.5 312 L 7.5 311 L 7.5 308 L 8.5 307 L 8.5 305 L 9.5 304 L 9.5 302 L 10.5 301 L 10.5 299 L 11.5 298 L 11.5 296 L 12.5 295 L 12.5 294 L 13.5 293 L 13.5 291 L 14.5 290 L 14.5 288 L 15.5 287 L 15.5 286 L 16.5 285 L 16.5 283 L 17.5 282 L 17.5 281 L 18.5 280 L 18.5 279 L 19.5 278 L 19.5 276 L 20.5 275 L 20.5 274 L 21.5 273 L 21.5 271 L 22.5 270 L 22.5 269 L 23.5 268 L 23.5 267 L 24.5 266 L 24.5 265 L 25.5 264 L 25.5 263 L 26.5 262 L 26.5 261 L 27.5 260 L 27.5 259 L 28.5 258 L 28.5 257 L 29.5 256 L 29.5 255 L 30.5 254 L 30.5 253 L 31.5 252 L 31.5 251 L 32.5 250 L 32.5 249 L 33.5 248 L 33.5 247 L 34.5 246 L 34.5 245 L 35.5 244 L 35.5 243 L 36.5 242 L 36.5 241 L 38.5 239 L 38.5 238 L 39.5 237 L 39.5 236 L 41.5 234 L 41.5 233 L 42.5 232 L 42.5 231 L 44.5 229 L 44.5 228 L 46.5 226 L 46.5 225 L 47.5 224 L 47.5 223 L 49.5 221 L 49.5 220 L 52.5 217 L 52.5 216 L 54.5 214 L 54.5 213 L 56.5 211 L 56.5 210 L 58.5 208 L 58.5 207 L 61.5 204 L 61.5 203 L 64.5 200 L 64.5 199 L 66.5 197 L 66.5 196 L 72.5 190 L 72.5 189 L 76.5 185 L 76.5 184 L 80.5 180 L 80.5 179 L 86.5 173 L 86.5 172 L 103 155.5 L 104 155.5 L 107 152.5 L 108 152.5 L 109 151.5 L 110 151.5 L 112 149.5 L 113 149.5 L 114 148.5 L 115 148.5 L 116 147.5 L 117 147.5 L 118 146.5 L 119 146.5 L 120 145.5 L 121 145.5 L 122 144.5 L 124 144.5 L 125 143.5 L 127 143.5 L 128 142.5 L 132 142.5 L 133 141.5 L 137 141.5 L 138 140.5 L 156 140.5 L 157 141.5 L 162 141.5 L 163 142.5 L 165 142.5 L 166 143.5 L 168 143.5 L 169 144.5 L 171 144.5 L 172 145.5 L 173 145.5 L 174 146.5 L 175 146.5 L 176 147.5 L 177 147.5 L 178 148.5 L 179 148.5 L 181 150.5 L 182 150.5 L 184 152.5 L 185 152.5 L 187 154.5 L 188 154.5 L 217.5 184 L 217.5 185 L 233.5 201 L 233.5 202 L 236.5 205 L 231.5 210 L 231.5 211 L 217.5 225 L 217.5 226 L 203.5 240 L 203.5 241 L 201 243.5 L 199 243.5 L 198 242.5 L 197 242.5 L 195.5 241 L 195.5 240 L 195 239.5 L 194 239.5 L 193.5 239 L 193.5 238 L 154 198.5 L 153 198.5 L 151 196.5 L 143 196.5 L 142 197.5 L 141 197.5 L 140 198.5 L 139 198.5 L 126.5 211 L 126.5 212 L 119.5 219 L 119.5 220 L 115.5 224 L 115.5 225 L 112.5 228 L 112.5 229 L 109.5 232 L 109.5 233 L 106.5 236 L 106.5 237 L 104.5 239 L 104.5 240 L 102.5 242 L 102.5 243 L 100.5 245 L 100.5 246 L 98.5 248 L 98.5 249 L 96.5 251 L 96.5 252 L 94.5 254 L 94.5 255 L 92.5 257 L 92.5 258 L 91.5 259 L 91.5 260 L 89.5 262 L 89.5 263 L 88.5 264 L 88.5 265 L 86.5 267 L 86.5 268 L 85.5 269 L 85.5 271 L 83.5 273 L 83.5 274 L 82.5 275 L 82.5 276 L 81.5 277 L 81.5 278 L 80.5 279 L 80.5 280 L 79.5 281 L 79.5 283 L 78.5 284 L 78.5 285 L 77.5 286 L 77.5 287 L 76.5 288 L 76.5 289 L 75.5 290 L 75.5 291 L 74.5 292 L 74.5 294 L 73.5 295 L 73.5 296 L 72.5 297 L 72.5 299 L 71.5 300 L 71.5 302 L 70.5 303 L 70.5 304 L 69.5 305 L 69.5 307 L 68.5 308 L 68.5 310 L 67.5 311 L 67.5 313 L 66.5 314 L 66.5 316 L 65.5 317 L 65.5 319 L 64.5 320 L 64.5 322 L 63.5 323 L 63.5 326 L 62.5 327 L 62.5 330 L 61.5 331 L 61.5 335 L 60.5 336 L 60.5 340 L 59.5 341 L 59.5 348 L 58.5 349 L 58.5 379 L 59.5 380 L 59.5 385 L 60.5 386 L 60.5 390 L 61.5 391 L 61.5 394 L 62.5 395 L 62.5 396 L 63.5 397 L 63.5 399 L 64.5 400 L 64.5 402 L 65.5 403 L 65.5 404 L 66.5 405 L 66.5 407 L 67.5 408 L 67.5 409 L 68.5 410 L 68.5 411 L 69.5 412 L 69.5 413 L 70.5 414 L 70.5 415 L 71.5 416 L 71.5 417 L 73.5 419 L 73.5 420 L 74.5 421 L 74.5 422 L 76.5 424 L 76.5 425 L 78.5 427 L 78.5 428 L 83.5 433 L 83.5 434 L 91 441.5 L 92 441.5 L 97 446.5 L 98 446.5 L 100 448.5 L 101 448.5 L 103 450.5 L 104 450.5 L 105 451.5 L 106 451.5 L 108 453.5 L 109 453.5 L 110 454.5 L 111 454.5 L 112 455.5 L 113 455.5 L 114 456.5 L 116 456.5 L 117 457.5 L 118 457.5 L 119 458.5 L 121 458.5 L 122 459.5 L 124 459.5 L 125 460.5 L 127 460.5 L 128 461.5 L 130 461.5 L 131 462.5 L 135 462.5 L 136 463.5 L 141 463.5 L 142 464.5 L 166 464.5 L 167 463.5 L 172 463.5 L 173 462.5 L 177 462.5 L 178 461.5 L 182 461.5 L 183 460.5 L 185 460.5 L 186 459.5 L 188 459.5 L 189 458.5 L 190 458.5 L 191 457.5 L 193 457.5 L 194 456.5 L 195 456.5 L 196 455.5 L 197 455.5 L 198 454.5 L 200 454.5 L 201 453.5 L 202 453.5 L 204 451.5 L 205 451.5 L 206 450.5 L 207 450.5 L 208 449.5 L 209 449.5 L 211 447.5 L 212 447.5 L 213 446.5 L 214 446.5 L 216 444.5 L 217 444.5 L 219 442.5 L 220 442.5 L 223 439.5 L 224 439.5 L 228 435.5 L 229 435.5 L 236 428.5 L 237 428.5 L 254.5 411 L 254.5 410 L 274.5 390 L 274.5 389 L 286.5 377 L 286.5 376 L 291 371.5 L 292 371.5 L 297.5 377 L 297.5 378 L 307.5 388 L 307.5 389 L 326.5 408 L 326.5 409 L 328.5 411 L 313.5 426 L 313.5 427 L 304.5 436 L 304.5 437 L 280.5 461 L 280.5 462 L 276 466.5 L 275 466.5 L 268 473.5 L 267 473.5 L 261 479.5 L 260 479.5 L 255 484.5 L 254 484.5 L 251 487.5 L 250 487.5 L 247 490.5 L 246 490.5 L 243 493.5 L 242 493.5 L 240 495.5 L 239 495.5 L 237 497.5 L 236 497.5 L 235 498.5 L 234 498.5 L 233 499.5 L 232 499.5 L 230 501.5 L 229 501.5 L 227 503.5 L 226 503.5 L 225 504.5 L 224 504.5 L 223 505.5 L 222 505.5 L 221 506.5 L 220 506.5 L 219 507.5 L 218 507.5 L 217 508.5 L 216 508.5 L 215 509.5 L 213 509.5 L 212 510.5 L 211 510.5 L 210 511.5 L 209 511.5 L 208 512.5 L 206 512.5 L 205 513.5 L 203 513.5 L 202 514.5 L 200 514.5 L 199 515.5 L 197 515.5 L 196 516.5 L 194 516.5 L 193 517.5 L 190 517.5 L 189 518.5 L 186 518.5 L 185 519.5 L 182 519.5 L 181 520.5 L 177 520.5 L 176 521.5 L 170 521.5 L 169 522.5 L 154 522.5 L 153.5 523 Z M 681 371.5 L 680.5 372 L 680.5 384 L 679.5 385 L 679.5 392 L 678.5 393 L 678.5 399 L 677.5 400 L 677.5 404 L 676.5 405 L 676.5 408 L 675.5 409 L 675.5 411 L 674.5 412 L 674.5 415 L 673.5 416 L 673.5 418 L 672.5 419 L 672.5 421 L 671.5 422 L 671.5 423 L 670.5 424 L 670.5 426 L 669.5 427 L 669.5 428 L 668.5 429 L 668.5 431 L 667.5 432 L 667.5 433 L 666.5 434 L 666.5 435 L 665.5 436 L 665.5 437 L 664.5 438 L 664.5 439 L 663.5 440 L 663.5 442 L 662.5 443 L 662.5 444 L 660.5 446 L 660.5 447 L 658.5 449 L 658.5 450 L 657.5 451 L 657.5 452 L 655.5 454 L 655.5 455 L 653.5 457 L 653.5 458 L 650.5 461 L 650.5 462 L 647.5 465 L 647.5 466 L 642.5 471 L 642.5 472 L 629 485.5 L 628 485.5 L 622 491.5 L 621 491.5 L 618 494.5 L 617 494.5 L 615 496.5 L 614 496.5 L 612 498.5 L 611 498.5 L 609 500.5 L 608 500.5 L 607 501.5 L 606 501.5 L 604 503.5 L 603 503.5 L 602 504.5 L 601 504.5 L 600 505.5 L 599 505.5 L 598 506.5 L 597 506.5 L 595 508.5 L 593 508.5 L 592 509.5 L 591 509.5 L 590 510.5 L 589 510.5 L 588 511.5 L 587 511.5 L 586 512.5 L 584 512.5 L 583 513.5 L 582 513.5 L 581 514.5 L 579 514.5 L 578 515.5 L 576 515.5 L 575 516.5 L 573 516.5 L 572 517.5 L 569 517.5 L 568 518.5 L 566 518.5 L 565 519.5 L 561 519.5 L 560 520.5 L 555 520.5 L 554 521.5 L 547 521.5 L 546 522.5 L 517 522.5 L 516 521.5 L 511 521.5 L 510 520.5 L 505 520.5 L 504 519.5 L 500 519.5 L 499 518.5 L 496 518.5 L 495 517.5 L 492 517.5 L 491 516.5 L 489 516.5 L 488 515.5 L 485 515.5 L 484 514.5 L 482 514.5 L 481 513.5 L 479 513.5 L 478 512.5 L 476 512.5 L 475 511.5 L 474 511.5 L 473 510.5 L 472 510.5 L 471 509.5 L 469 509.5 L 468 508.5 L 467 508.5 L 466 507.5 L 465 507.5 L 464 506.5 L 463 506.5 L 462 505.5 L 461 505.5 L 459 503.5 L 458 503.5 L 457 502.5 L 456 502.5 L 455 501.5 L 454 501.5 L 453 500.5 L 452 500.5 L 451 499.5 L 450 499.5 L 448 497.5 L 447 497.5 L 445 495.5 L 444 495.5 L 443 494.5 L 442 494.5 L 440 492.5 L 439 492.5 L 436 489.5 L 435 489.5 L 432 486.5 L 431 486.5 L 428 483.5 L 427 483.5 L 422 478.5 L 421 478.5 L 416 473.5 L 415 473.5 L 382.5 441 L 382.5 440 L 363.5 421 L 363.5 420 L 352.5 409 L 352.5 408 L 332.5 388 L 332.5 387 L 308.5 363 L 308.5 362 L 298.5 352 L 298.5 351 L 293 345.5 L 292 345.5 L 291.5 345 L 291.5 344 L 280.5 333 L 280.5 332 L 263.5 315 L 263.5 314 L 262.5 313 L 262.5 312 L 275.5 299 L 275.5 298 L 292.5 281 L 292.5 280 L 299 273.5 L 301 273.5 L 301.5 274 L 301.5 275 L 316.5 290 L 316.5 291 L 332.5 307 L 332.5 308 L 351.5 327 L 351.5 328 L 363.5 340 L 363.5 341 L 381.5 359 L 381.5 360 L 398.5 377 L 398.5 378 L 410.5 390 L 410.5 391 L 432.5 413 L 432.5 414 L 442 423.5 L 443 423.5 L 452 432.5 L 453 432.5 L 458 437.5 L 459 437.5 L 463 441.5 L 464 441.5 L 466 443.5 L 467 443.5 L 469 445.5 L 470 445.5 L 472 447.5 L 473 447.5 L 474 448.5 L 475 448.5 L 476 449.5 L 477 449.5 L 478 450.5 L 479 450.5 L 480 451.5 L 481 451.5 L 482 452.5 L 483 452.5 L 484 453.5 L 485 453.5 L 487 455.5 L 489 455.5 L 490 456.5 L 491 456.5 L 492 457.5 L 494 457.5 L 495 458.5 L 496 458.5 L 497 459.5 L 500 459.5 L 501 460.5 L 503 460.5 L 504 461.5 L 507 461.5 L 508 462.5 L 512 462.5 L 513 463.5 L 519 463.5 L 520 464.5 L 544 464.5 L 545 463.5 L 550 463.5 L 551 462.5 L 554 462.5 L 555 461.5 L 558 461.5 L 559 460.5 L 561 460.5 L 562 459.5 L 563 459.5 L 564 458.5 L 566 458.5 L 567 457.5 L 568 457.5 L 569 456.5 L 570 456.5 L 571 455.5 L 573 455.5 L 575 453.5 L 576 453.5 L 577 452.5 L 578 452.5 L 579 451.5 L 580 451.5 L 582 449.5 L 583 449.5 L 585 447.5 L 586 447.5 L 590 443.5 L 591 443.5 L 602.5 432 L 602.5 431 L 606.5 427 L 606.5 426 L 608.5 424 L 608.5 423 L 610.5 421 L 610.5 420 L 612.5 418 L 612.5 417 L 613.5 416 L 613.5 414 L 615.5 412 L 615.5 410 L 616.5 409 L 616.5 408 L 617.5 407 L 617.5 406 L 618.5 405 L 618.5 403 L 619.5 402 L 619.5 400 L 620.5 399 L 620.5 398 L 621.5 397 L 621.5 394 L 622.5 393 L 622.5 390 L 623.5 389 L 623.5 385 L 624.5 384 L 624.5 376 L 625.5 375 L 625.5 372 L 624.5 371 L 624.5 370 L 625.5 369 L 625.5 364 L 624.5 363 L 624.5 353 L 623.5 352 L 623.5 347 L 622.5 346 L 626.5 342 L 626.5 341 L 629.5 338 L 629.5 337 L 632.5 334 L 632.5 333 L 636.5 329 L 636.5 328 L 638.5 326 L 638.5 325 L 641.5 322 L 641.5 321 L 644.5 318 L 644.5 317 L 646.5 315 L 646.5 314 L 648.5 312 L 648.5 311 L 650.5 309 L 650.5 308 L 652.5 306 L 652.5 305 L 654.5 303 L 654.5 302 L 655.5 301 L 655.5 300 L 657.5 298 L 657.5 297 L 659.5 295 L 659.5 294 L 660.5 293 L 660.5 292 L 661.5 291 L 661.5 290 L 663 288.5 L 664 288.5 L 665.5 290 L 665.5 292 L 666.5 293 L 666.5 294 L 667.5 295 L 667.5 296 L 668.5 297 L 668.5 298 L 669.5 299 L 669.5 301 L 670.5 302 L 670.5 304 L 671.5 305 L 671.5 308 L 672.5 309 L 672.5 311 L 673.5 312 L 673.5 315 L 674.5 316 L 674.5 319 L 675.5 320 L 675.5 324 L 676.5 325 L 676.5 329 L 677.5 330 L 677.5 334 L 678.5 335 L 678.5 340 L 679.5 341 L 679.5 345 L 680.5 346 L 680.5 356 L 681 356.5 Z M 165.5 0 L 166 0.5 L 176 0.5 L 177 1.5 L 180 1.5 L 181 2.5 L 186 2.5 L 187 3.5 L 191 3.5 L 192 4.5 L 194 4.5 L 195 5.5 L 198 5.5 L 199 6.5 L 201 6.5 L 202 7.5 L 205 7.5 L 206 8.5 L 208 8.5 L 209 9.5 L 210 9.5 L 211 10.5 L 213 10.5 L 214 11.5 L 215 11.5 L 216 12.5 L 217 12.5 L 218 13.5 L 220 13.5 L 221 14.5 L 222 14.5 L 223 15.5 L 224 15.5 L 225 16.5 L 226 16.5 L 227 17.5 L 228 17.5 L 229 18.5 L 230 18.5 L 231 19.5 L 232 19.5 L 234 21.5 L 235 21.5 L 236 22.5 L 237 22.5 L 239 24.5 L 240 24.5 L 241 25.5 L 242 25.5 L 245 28.5 L 246 28.5 L 248 30.5 L 249 30.5 L 251 32.5 L 252 32.5 L 255 35.5 L 256 35.5 L 259 38.5 L 260 38.5 L 265 43.5 L 266 43.5 L 277 54.5 L 278 54.5 L 305.5 82 L 305.5 83 L 332.5 110 L 332.5 111 L 357.5 136 L 357.5 137 L 361 140.5 L 362 140.5 L 367.5 146 L 367.5 147 L 383.5 163 L 383.5 164 L 407.5 188 L 407.5 189 L 422.5 204 L 422.5 205 L 416.5 211 L 416.5 212 L 411 217.5 L 410 217.5 L 408.5 219 L 408.5 220 L 389.5 239 L 389.5 240 L 386 243.5 L 385 243.5 L 374.5 233 L 374.5 232 L 350.5 208 L 350.5 207 L 347 203.5 L 346 203.5 L 345.5 203 L 345.5 202 L 345 201.5 L 344 201.5 L 343.5 201 L 343.5 200 L 303.5 160 L 303.5 159 L 236 91.5 L 235 91.5 L 231 87.5 L 230 87.5 L 229 85.5 L 228 85.5 L 224 81.5 L 223 81.5 L 221 79.5 L 220 79.5 L 218 77.5 L 217 77.5 L 215 75.5 L 214 75.5 L 212 73.5 L 211 73.5 L 210 72.5 L 209 72.5 L 207 70.5 L 206 70.5 L 205 69.5 L 203 69.5 L 202 68.5 L 201 68.5 L 200 67.5 L 199 67.5 L 198 66.5 L 197 66.5 L 196 65.5 L 194 65.5 L 193 64.5 L 192 64.5 L 191 63.5 L 189 63.5 L 188 62.5 L 186 62.5 L 185 61.5 L 182 61.5 L 181 60.5 L 178 60.5 L 177 59.5 L 172 59.5 L 171 58.5 L 164 58.5 L 163 57.5 L 148 57.5 L 147 58.5 L 141 58.5 L 140 59.5 L 136 59.5 L 135 60.5 L 132 60.5 L 131 61.5 L 129 61.5 L 128 62.5 L 126 62.5 L 125 63.5 L 123 63.5 L 122 64.5 L 120 64.5 L 119 65.5 L 118 65.5 L 117 66.5 L 116 66.5 L 115 67.5 L 114 67.5 L 113 68.5 L 112 68.5 L 111 69.5 L 110 69.5 L 109 70.5 L 108 70.5 L 106 72.5 L 105 72.5 L 103 74.5 L 102 74.5 L 99 77.5 L 98 77.5 L 94 81.5 L 93 81.5 L 82.5 92 L 82.5 93 L 78.5 97 L 78.5 98 L 76.5 100 L 76.5 101 L 75.5 102 L 75.5 103 L 73.5 105 L 73.5 106 L 72.5 107 L 72.5 108 L 71.5 109 L 71.5 110 L 70.5 111 L 70.5 112 L 69.5 113 L 69.5 114 L 68.5 115 L 68.5 116 L 67.5 117 L 67.5 118 L 66.5 119 L 66.5 121 L 65.5 122 L 65.5 123 L 64.5 124 L 64.5 126 L 63.5 127 L 63.5 130 L 62.5 131 L 62.5 134 L 61.5 135 L 61.5 139 L 60.5 140 L 60.5 151 L 59.5 152 L 59.5 160 L 60.5 161 L 60.5 172 L 61.5 173 L 61.5 176 L 60.5 177 L 60.5 178 L 54.5 184 L 54.5 185 L 50.5 189 L 50.5 190 L 46.5 194 L 46.5 195 L 42.5 199 L 42.5 200 L 39.5 203 L 39.5 204 L 36.5 207 L 36.5 208 L 34.5 210 L 34.5 211 L 32.5 213 L 32.5 214 L 30.5 216 L 30.5 217 L 28.5 219 L 28.5 220 L 26.5 222 L 26.5 223 L 25.5 224 L 25.5 225 L 23.5 227 L 23.5 228 L 21.5 230 L 21.5 231 L 21 231.5 L 19 231.5 L 18.5 231 L 18.5 230 L 17.5 229 L 17.5 228 L 16.5 227 L 16.5 226 L 15.5 225 L 15.5 224 L 14.5 223 L 14.5 222 L 13.5 221 L 13.5 220 L 12.5 219 L 12.5 218 L 11.5 217 L 11.5 216 L 10.5 215 L 10.5 213 L 9.5 212 L 9.5 210 L 8.5 209 L 8.5 207 L 7.5 206 L 7.5 204 L 6.5 203 L 6.5 201 L 5.5 200 L 5.5 197 L 4.5 196 L 4.5 194 L 3.5 193 L 3.5 188 L 2.5 187 L 2.5 183 L 1.5 182 L 1.5 177 L 0.5 176 L 0.5 168 L 0 167.5 Z M 292 174.5 L 293 174.5 L 295.5 177 L 295.5 178 L 317.5 200 L 317.5 201 L 329.5 213 L 317.5 225 L 317.5 226 L 305.5 238 L 305.5 239 L 286.5 258 L 286.5 259 L 271.5 274 L 271.5 275 L 254.5 292 L 254.5 293 L 233.5 314 L 233.5 315 L 210.5 338 L 210.5 339 L 186 363.5 L 185 363.5 L 183 365.5 L 182 365.5 L 179 368.5 L 178 368.5 L 177 369.5 L 176 369.5 L 174 371.5 L 173 371.5 L 172 372.5 L 170 372.5 L 169 373.5 L 168 373.5 L 167 374.5 L 166 374.5 L 165 375.5 L 163 375.5 L 162 376.5 L 160 376.5 L 159 377.5 L 154 377.5 L 153 378.5 L 135 378.5 L 134 377.5 L 130 377.5 L 129 376.5 L 127 376.5 L 126 375.5 L 124 375.5 L 123 374.5 L 122 374.5 L 121 373.5 L 119 373.5 L 118 372.5 L 117 372.5 L 116 371.5 L 115 371.5 L 114 370.5 L 113 370.5 L 111 368.5 L 110 368.5 L 108 366.5 L 107 366.5 L 105 364.5 L 104 364.5 L 89.5 350 L 89.5 349 L 84.5 344 L 84.5 343 L 82.5 341 L 82.5 340 L 81.5 339 L 81.5 338 L 80.5 337 L 80.5 336 L 79.5 335 L 80.5 334 L 80.5 330 L 81.5 329 L 81.5 326 L 82.5 325 L 82.5 321 L 83.5 320 L 83.5 319 L 84.5 318 L 84.5 316 L 85.5 315 L 85.5 313 L 86.5 312 L 86.5 310 L 87.5 309 L 87.5 308 L 88.5 307 L 88.5 305 L 89.5 304 L 89.5 303 L 90.5 302 L 90.5 301 L 91.5 300 L 91.5 299 L 92.5 298 L 92.5 297 L 93.5 296 L 93.5 294 L 94.5 293 L 94.5 292 L 96.5 290 L 96.5 289 L 97.5 288 L 97.5 287 L 98.5 286 L 98.5 285 L 100.5 283 L 100.5 282 L 101 281.5 L 102 281.5 L 113.5 293 L 113.5 294 L 114 294.5 L 115 294.5 L 117.5 297 L 117.5 298 L 130.5 311 L 130.5 312 L 136 317.5 L 137 317.5 L 139 319.5 L 140 319.5 L 141 320.5 L 142 320.5 L 143 321.5 L 149 321.5 L 150 320.5 L 152 320.5 L 155 317.5 L 156 317.5 L 167.5 306 L 167.5 305 L 188.5 284 L 188.5 283 L 207.5 264 L 207.5 263 L 225.5 245 L 225.5 244 L 226 243.5 L 227 243.5 L 229.5 241 L 229.5 240 L 245.5 224 L 245.5 223 L 251 217.5 L 252 217.5 L 252.5 217 L 252.5 216 L 264.5 204 L 264.5 203 L 286.5 181 L 286.5 180 L 292 174.5 Z M 534 140.5 L 548 140.5 L 549 141.5 L 554 141.5 L 555 142.5 L 558 142.5 L 559 143.5 L 561 143.5 L 562 144.5 L 564 144.5 L 565 145.5 L 566 145.5 L 567 146.5 L 568 146.5 L 569 147.5 L 570 147.5 L 571 148.5 L 572 148.5 L 574 150.5 L 575 150.5 L 577 152.5 L 578 152.5 L 580 154.5 L 581 154.5 L 585 158.5 L 586 158.5 L 588.5 161 L 588.5 162 L 598.5 172 L 598.5 173 L 600.5 175 L 600.5 176 L 602.5 178 L 602.5 179 L 603.5 180 L 603.5 188 L 602.5 189 L 602.5 192 L 601.5 193 L 601.5 196 L 600.5 197 L 600.5 200 L 599.5 201 L 599.5 204 L 598.5 205 L 598.5 207 L 597.5 208 L 597.5 210 L 596.5 211 L 596.5 213 L 595.5 214 L 595.5 215 L 594.5 216 L 594.5 218 L 593.5 219 L 593.5 220 L 592.5 221 L 592.5 223 L 591.5 224 L 591.5 225 L 590.5 226 L 590.5 227 L 589.5 228 L 589.5 229 L 588.5 230 L 588.5 231 L 586.5 233 L 586.5 234 L 585.5 235 L 585.5 236 L 585 236.5 L 583 236.5 L 574.5 228 L 574.5 227 L 556.5 209 L 556.5 208 L 551 202.5 L 550 202.5 L 546 198.5 L 545 198.5 L 544 197.5 L 543 197.5 L 542 196.5 L 536 196.5 L 535 197.5 L 534 197.5 L 533 198.5 L 532 198.5 L 493.5 237 L 493.5 238 L 489 242.5 L 488 242.5 L 484.5 246 L 484.5 247 L 455.5 276 L 455.5 277 L 433.5 299 L 433.5 300 L 408.5 325 L 408.5 326 L 392 342.5 L 391 342.5 L 383.5 335 L 383.5 334 L 366.5 317 L 366.5 316 L 355.5 305 L 355.5 304 L 362.5 297 L 362.5 296 L 363 295.5 L 364 295.5 L 368.5 291 L 368.5 290 L 384.5 274 L 384.5 273 L 408.5 249 L 408.5 248 L 432.5 224 L 432.5 223 L 451.5 204 L 451.5 203 L 481.5 173 L 481.5 172 L 491 162.5 L 492 162.5 L 499 155.5 L 500 155.5 L 503 152.5 L 504 152.5 L 506 150.5 L 507 150.5 L 508 149.5 L 509 149.5 L 511 147.5 L 512 147.5 L 513 146.5 L 514 146.5 L 515 145.5 L 517 145.5 L 518 144.5 L 519 144.5 L 520 143.5 L 523 143.5 L 524 142.5 L 527 142.5 L 528 141.5 L 533 141.5 L 534 140.5 Z M 152.5 523 L 152 522.5 L 138 522.5 L 137 521.5 L 129 521.5 L 128 520.5 L 123 520.5 L 122 519.5 L 118 519.5 L 117 518.5 L 114 518.5 L 113 517.5 L 111 517.5 L 110 516.5 L 107 516.5 L 106 515.5 L 104 515.5 L 103 514.5 L 102 514.5 L 101 513.5 L 99 513.5 L 98 512.5 L 97 512.5 L 96 511.5 L 94 511.5 L 93 510.5 L 92 510.5 L 91 509.5 L 89 509.5 L 88 508.5 L 87 508.5 L 86 507.5 L 85 507.5 L 84 506.5 L 83 506.5 L 81 504.5 L 80 504.5 L 79 503.5 L 78 503.5 L 77 502.5 L 76 502.5 L 75 501.5 L 74 501.5 L 72 499.5 L 71 499.5 L 69 497.5 L 68 497.5 L 66 495.5 L 65 495.5 L 62 492.5 L 61 492.5 L 58 489.5 L 57 489.5 L 51 483.5 L 50 483.5 L 39.5 473 L 39.5 472 L 33.5 466 L 33.5 465 L 30.5 462 L 30.5 461 L 27.5 458 L 27.5 457 L 24.5 454 L 24.5 453 L 22.5 451 L 22.5 450 L 21.5 449 L 21.5 448 L 20.5 447 L 20.5 446 L 18.5 444 L 18.5 443 L 17.5 442 L 17.5 441 L 16.5 440 L 16.5 439 L 15.5 438 L 15.5 437 L 14.5 436 L 14.5 435 L 13.5 434 L 13.5 433 L 12.5 432 L 12.5 430 L 11.5 429 L 11.5 428 L 10.5 427 L 10.5 425 L 9.5 424 L 9.5 423 L 8.5 422 L 8.5 421 L 7.5 420 L 7.5 418 L 6.5 417 L 6.5 414 L 5.5 413 L 5.5 411 L 4.5 410 L 4.5 407 L 3.5 406 L 3.5 403 L 2.5 402 L 2.5 397 L 1.5 396 L 1.5 390 L 0.5 389 L 0.5 382 L 0 381.5 Z M 0 141.5 L 0.5 141 L 0.5 134 L 1.5 133 L 1.5 128 L 2.5 127 L 2.5 123 L 3.5 122 L 3.5 118 L 4.5 117 L 4.5 114 L 5.5 113 L 5.5 110 L 6.5 109 L 6.5 107 L 7.5 106 L 7.5 104 L 8.5 103 L 8.5 101 L 9.5 100 L 9.5 98 L 10.5 97 L 10.5 96 L 11.5 95 L 11.5 94 L 12.5 93 L 12.5 91 L 14.5 89 L 14.5 88 L 15.5 87 L 15.5 86 L 16.5 85 L 16.5 84 L 17.5 83 L 17.5 82 L 18.5 81 L 18.5 80 L 19.5 79 L 19.5 78 L 20.5 77 L 20.5 76 L 22.5 74 L 22.5 73 L 23.5 72 L 23.5 71 L 25.5 69 L 25.5 68 L 26.5 67 L 26.5 66 L 30.5 62 L 30.5 61 L 34.5 57 L 34.5 56 L 39.5 51 L 39.5 50 L 46 43.5 L 47 43.5 L 55 35.5 L 56 35.5 L 60 31.5 L 61 31.5 L 64 28.5 L 65 28.5 L 67 26.5 L 68 26.5 L 70 24.5 L 71 24.5 L 73 22.5 L 74 22.5 L 75 21.5 L 76 21.5 L 78 19.5 L 79 19.5 L 80 18.5 L 81 18.5 L 82 17.5 L 83 17.5 L 85 15.5 L 86 15.5 L 87 14.5 L 89 14.5 L 90 13.5 L 91 13.5 L 92 12.5 L 94 12.5 L 95 11.5 L 96 11.5 L 97 10.5 L 99 10.5 L 100 9.5 L 101 9.5 L 102 8.5 L 104 8.5 L 105 7.5 L 107 7.5 L 108 6.5 L 110 6.5 L 111 5.5 L 114 5.5 L 115 4.5 L 117 4.5 L 118 3.5 L 122 3.5 L 123 2.5 L 128 2.5 L 129 1.5 L 135 1.5 L 136 0.5 L 147 0.5 L 147.5 0 Z M 450 311.5 L 450.5 312 L 450 312.5 L 449.5 312 L 450 311.5 Z"/>
</svg>
