<svg xmlns="http://www.w3.org/2000/svg" viewBox="0 0 1024 1024" role="img" aria-labelledby="flowLogoTitle">
  <title id="flowLogoTitle">flow</title>
  <defs>
    <linearGradient id="flowLogoBlue" x1="180" y1="217" x2="861" y2="740" gradientUnits="userSpaceOnUse">
      <stop offset="0" stop-color="#1f6aa5"/>
      <stop offset="1" stop-color="#0d467c"/>
    </linearGradient>
  </defs>
  <path fill="url(#flowLogoBlue)" fill-rule="evenodd" d="M 861 385.5 L 860.5 386 L 860.5 395 L 859.5 396 L 859.5 403 L 858.5 404 L 858.5 410 L 857.5 411 L 857.5 415 L 856.5 416 L 856.5 420 L 855.5 421 L 855.5 424 L 854.5 425 L 854.5 428 L 853.5 429 L 853.5 432 L 852.5 433 L 852.5 435 L 851.5 436 L 851.5 438 L 850.5 439 L 850.5 441 L 849.5 442 L 849.5 444 L 848.5 445 L 848.5 447 L 847.5 448 L 847.5 450 L 846.5 451 L 846.5 452 L 845.5 453 L 845.5 455 L 844.5 456 L 844.5 458 L 843.5 459 L 843.5 460 L 842.5 461 L 842.5 463 L 841.5 464 L 841.5 465 L 840.5 466 L 840.5 467 L 839.5 468 L 839.5 469 L 838.5 470 L 838.5 472 L 837.5 473 L 837.5 474 L 836.5 475 L 836.5 476 L 835.5 477 L 835.5 478 L 834.5 479 L 834.5 480 L 833.5 481 L 833.5 482 L 832.5 483 L 832.5 484 L 831.5 485 L 831.5 486 L 830.5 487 L 830.5 488 L 829.5 489 L 829.5 490 L 828.5 491 L 828.5 492 L 827.5 493 L 827.5 494 L 826.5 495 L 826.5 496 L 825.5 497 L 825.5 498 L 823.5 500 L 823.5 501 L 822.5 502 L 822.5 503 L 821.5 504 L 821.5 505 L 819.5 507 L 819.5 508 L 818.5 509 L 818.5 510 L 816.5 512 L 816.5 513 L 814.5 515 L 814.5 516 L 812.5 518 L 812.5 519 L 811.5 520 L 811.5 521 L 808.5 524 L 808.5 525 L 806.5 527 L 806.5 528 L 804.5 530 L 804.5 531 L 802.5 533 L 802.5 534 L 798.5 538 L 798.5 539 L 794.5 543 L 794.5 544 L 792.5 546 L 792.5 547 L 787.5 552 L 787.5 553 L 780.5 560 L 780.5 561 L 767.5 574 L 767.5 575 L 766 576.5 L 765 576.5 L 759 582.5 L 758 582.5 L 755 585.5 L 754 585.5 L 753 586.5 L 752 586.5 L 751 587.5 L 750 587.5 L 749 588.5 L 748 588.5 L 747 589.5 L 746 589.5 L 745 590.5 L 744 590.5 L 743 591.5 L 742 591.5 L 741 592.5 L 739 592.5 L 738 593.5 L 735 593.5 L 734 594.5 L 730 594.5 L 729 595.5 L 712 595.5 L 711 594.5 L 707 594.5 L 706 593.5 L 703 593.5 L 702 592.5 L 700 592.5 L 699 591.5 L 697 591.5 L 696 590.5 L 695 590.5 L 694 589.5 L 693 589.5 L 692 588.5 L 691 588.5 L 690 587.5 L 689 587.5 L 688 586.5 L 687 586.5 L 685 584.5 L 684 584.5 L 681 581.5 L 680 581.5 L 653.5 555 L 653.5 554 L 636.5 537 L 636.5 536 L 630.5 530 L 631.5 529 L 630.5 528 L 640.5 518 L 640.5 517 L 660.5 497 L 660.5 496 L 666 490.5 L 667 490.5 L 678.5 502 L 678.5 503 L 699.5 524 L 699.5 525 L 711 536.5 L 712 536.5 L 713 537.5 L 714 537.5 L 715 538.5 L 723 538.5 L 724 537.5 L 725 537.5 L 726 536.5 L 727 536.5 L 741.5 522 L 741.5 521 L 745.5 517 L 745.5 516 L 751.5 510 L 751.5 509 L 754.5 506 L 754.5 505 L 757.5 502 L 757.5 501 L 760.5 498 L 760.5 497 L 762.5 495 L 762.5 494 L 764.5 492 L 764.5 491 L 766.5 489 L 766.5 488 L 767.5 487 L 767.5 486 L 769.5 484 L 769.5 483 L 771.5 481 L 771.5 480 L 772.5 479 L 772.5 478 L 774.5 476 L 774.5 475 L 775.5 474 L 775.5 473 L 776.5 472 L 776.5 471 L 778.5 469 L 778.5 468 L 779.5 467 L 779.5 466 L 780.5 465 L 780.5 464 L 781.5 463 L 781.5 462 L 782.5 461 L 782.5 460 L 783.5 459 L 783.5 458 L 784.5 457 L 784.5 456 L 785.5 455 L 785.5 453 L 786.5 452 L 786.5 451 L 787.5 450 L 787.5 449 L 788.5 448 L 788.5 447 L 789.5 446 L 789.5 444 L 790.5 443 L 790.5 442 L 791.5 441 L 791.5 439 L 792.5 438 L 792.5 437 L 793.5 436 L 793.5 434 L 794.5 433 L 794.5 431 L 795.5 430 L 795.5 428 L 796.5 427 L 796.5 425 L 797.5 424 L 797.5 422 L 798.5 421 L 798.5 418 L 799.5 417 L 799.5 415 L 800.5 414 L 800.5 410 L 801.5 409 L 801.5 406 L 802.5 405 L 802.5 401 L 803.5 400 L 803.5 394 L 804.5 393 L 804.5 379 L 805.5 378 L 805.5 372 L 804.5 371 L 804.5 360 L 803.5 359 L 803.5 354 L 802.5 353 L 802.5 349 L 801.5 348 L 801.5 345 L 800.5 344 L 800.5 342 L 799.5 341 L 799.5 339 L 798.5 338 L 798.5 336 L 797.5 335 L 797.5 334 L 796.5 333 L 796.5 332 L 795.5 331 L 795.5 330 L 794.5 329 L 794.5 328 L 793.5 327 L 793.5 326 L 792.5 325 L 792.5 324 L 791.5 323 L 791.5 322 L 789.5 320 L 789.5 319 L 788.5 318 L 788.5 317 L 786.5 315 L 786.5 314 L 782.5 310 L 782.5 309 L 771 297.5 L 770 297.5 L 765 292.5 L 764 292.5 L 762 290.5 L 761 290.5 L 759 288.5 L 758 288.5 L 757 287.5 L 756 287.5 L 755 286.5 L 754 286.5 L 753 285.5 L 752 285.5 L 751 284.5 L 750 284.5 L 749 283.5 L 748 283.5 L 747 282.5 L 745 282.5 L 744 281.5 L 743 281.5 L 742 280.5 L 740 280.5 L 739 279.5 L 737 279.5 L 736 278.5 L 734 278.5 L 733 277.5 L 730 277.5 L 729 276.5 L 725 276.5 L 724 275.5 L 718 275.5 L 717 274.5 L 702 274.5 L 701 275.5 L 693 275.5 L 692 276.5 L 687 276.5 L 686 277.5 L 683 277.5 L 682 278.5 L 679 278.5 L 678 279.5 L 676 279.5 L 675 280.5 L 674 280.5 L 673 281.5 L 671 281.5 L 670 282.5 L 668 282.5 L 667 283.5 L 666 283.5 L 665 284.5 L 663 284.5 L 662 285.5 L 661 285.5 L 660 286.5 L 659 286.5 L 658 287.5 L 657 287.5 L 655 289.5 L 654 289.5 L 653 290.5 L 652 290.5 L 651 291.5 L 650 291.5 L 648 293.5 L 647 293.5 L 645 295.5 L 644 295.5 L 641 298.5 L 640 298.5 L 636 302.5 L 635 302.5 L 630 307.5 L 629 307.5 L 581.5 355 L 581.5 356 L 580 357.5 L 579 357.5 L 573 363.5 L 554.5 345 L 554.5 344 L 536.5 326 L 536.5 325 L 538.5 323 L 538.5 322 L 549.5 311 L 549.5 310 L 569.5 290 L 569.5 289 L 577 281.5 L 578 281.5 L 597 262.5 L 598 262.5 L 604 256.5 L 605 256.5 L 607 254.5 L 608 254.5 L 611 251.5 L 612 251.5 L 616 247.5 L 617 247.5 L 619 245.5 L 620 245.5 L 621 244.5 L 622 244.5 L 624 242.5 L 625 242.5 L 627 240.5 L 628 240.5 L 629 239.5 L 630 239.5 L 632 237.5 L 633 237.5 L 634 236.5 L 635 236.5 L 636 235.5 L 637 235.5 L 638 234.5 L 639 234.5 L 640 233.5 L 642 233.5 L 643 232.5 L 644 232.5 L 645 231.5 L 646 231.5 L 647 230.5 L 648 230.5 L 649 229.5 L 650 229.5 L 651 228.5 L 653 228.5 L 654 227.5 L 656 227.5 L 657 226.5 L 659 226.5 L 660 225.5 L 662 225.5 L 663 224.5 L 666 224.5 L 667 223.5 L 669 223.5 L 670 222.5 L 673 222.5 L 674 221.5 L 678 221.5 L 679 220.5 L 683 220.5 L 684 219.5 L 689 219.5 L 690 218.5 L 696 218.5 L 697 217.5 L 722 217.5 L 723 218.5 L 731 218.5 L 732 219.5 L 738 219.5 L 739 220.5 L 744 220.5 L 745 221.5 L 747 221.5 L 748 222.5 L 751 222.5 L 752 223.5 L 754 223.5 L 755 224.5 L 757 224.5 L 758 225.5 L 760 225.5 L 761 226.5 L 763 226.5 L 764 227.5 L 766 227.5 L 767 228.5 L 768 228.5 L 769 229.5 L 770 229.5 L 771 230.5 L 773 230.5 L 774 231.5 L 775 231.5 L 776 232.5 L 777 232.5 L 778 233.5 L 779 233.5 L 780 234.5 L 781 234.5 L 783 236.5 L 784 236.5 L 785 237.5 L 786 237.5 L 788 239.5 L 789 239.5 L 790 240.5 L 791 240.5 L 794 243.5 L 795 243.5 L 797 245.5 L 798 245.5 L 801 248.5 L 802 248.5 L 808 254.5 L 809 254.5 L 823.5 269 L 823.5 270 L 828.5 275 L 828.5 276 L 831.5 279 L 831.5 280 L 834.5 283 L 834.5 284 L 836.5 286 L 836.5 287 L 838.5 289 L 838.5 290 L 839.5 291 L 839.5 292 L 840.5 293 L 840.5 294 L 842.5 296 L 842.5 297 L 843.5 298 L 843.5 299 L 844.5 300 L 844.5 302 L 845.5 303 L 845.5 304 L 846.5 305 L 846.5 306 L 848.5 308 L 848.5 310 L 849.5 311 L 849.5 312 L 850.5 313 L 850.5 315 L 851.5 316 L 851.5 318 L 852.5 319 L 852.5 321 L 853.5 322 L 853.5 324 L 854.5 325 L 854.5 328 L 855.5 329 L 855.5 332 L 856.5 333 L 856.5 336 L 857.5 337 L 857.5 341 L 858.5 342 L 858.5 347 L 859.5 348 L 859.5 354 L 860.5 355 L 860.5 361 L 861 361.5 Z M 180 565.5 L 180.5 565 L 180.5 559 L 181.5 558 L 181.5 552 L 182.5 551 L 182.5 547 L 183.5 546 L 183.5 542 L 184.5 541 L 184.5 536 L 185.5 535 L 185.5 533 L 186.5 532 L 186.5 529 L 187.5 528 L 187.5 525 L 188.5 524 L 188.5 522 L 189.5 521 L 189.5 519 L 190.5 518 L 190.5 516 L 191.5 515 L 191.5 513 L 192.5 512 L 192.5 511 L 193.5 510 L 193.5 508 L 194.5 507 L 194.5 505 L 195.5 504 L 195.5 503 L 196.5 502 L 196.5 500 L 197.5 499 L 197.5 498 L 198.5 497 L 198.5 496 L 199.5 495 L 199.5 493 L 200.5 492 L 200.5 491 L 201.5 490 L 201.5 488 L 202.5 487 L 202.5 486 L 203.5 485 L 203.5 484 L 204.5 483 L 204.5 482 L 205.5 481 L 205.5 480 L 206.5 479 L 206.5 478 L 207.5 477 L 207.5 476 L 208.5 475 L 208.5 474 L 209.5 473 L 209.5 472 L 210.5 471 L 210.5 470 L 211.5 469 L 211.5 468 L 212.5 467 L 212.5 466 L 213.5 465 L 213.5 464 L 214.5 463 L 214.5 462 L 215.5 461 L 215.5 460 L 216.5 459 L 216.5 458 L 218.5 456 L 218.5 455 L 219.5 454 L 219.5 453 L 221.5 451 L 221.5 450 L 222.5 449 L 222.5 448 L 224.5 446 L 224.5 445 L 226.5 443 L 226.5 442 L 227.5 441 L 227.5 440 L 229.5 438 L 229.5 437 L 232.5 434 L 232.5 433 L 234.5 431 L 234.5 430 L 236.5 428 L 236.5 427 L 238.5 425 L 238.5 424 L 241.5 421 L 241.5 420 L 244.5 417 L 244.5 416 L 246.5 414 L 246.5 413 L 252.5 407 L 252.5 406 L 256.5 402 L 256.5 401 L 260.5 397 L 260.5 396 L 266.5 390 L 266.5 389 L 283 372.5 L 284 372.5 L 287 369.5 L 288 369.5 L 289 368.5 L 290 368.5 L 292 366.5 L 293 366.5 L 294 365.5 L 295 365.5 L 296 364.5 L 297 364.5 L 298 363.5 L 299 363.5 L 300 362.5 L 301 362.5 L 302 361.5 L 304 361.5 L 305 360.5 L 307 360.5 L 308 359.5 L 312 359.5 L 313 358.5 L 317 358.5 L 318 357.5 L 336 357.5 L 337 358.5 L 342 358.5 L 343 359.5 L 345 359.5 L 346 360.5 L 348 360.5 L 349 361.5 L 351 361.5 L 352 362.5 L 353 362.5 L 354 363.5 L 355 363.5 L 356 364.5 L 357 364.5 L 358 365.5 L 359 365.5 L 361 367.5 L 362 367.5 L 364 369.5 L 365 369.5 L 367 371.5 L 368 371.5 L 397.5 401 L 397.5 402 L 413.5 418 L 413.5 419 L 416.5 422 L 411.5 427 L 411.5 428 L 397.5 442 L 397.5 443 L 383.5 457 L 383.5 458 L 381 460.5 L 379 460.5 L 378 459.5 L 377 459.5 L 375.5 458 L 375.5 457 L 375 456.5 L 374 456.5 L 373.5 456 L 373.5 455 L 334 415.5 L 333 415.5 L 331 413.5 L 323 413.5 L 322 414.5 L 321 414.5 L 320 415.5 L 319 415.5 L 306.5 428 L 306.5 429 L 299.5 436 L 299.5 437 L 295.5 441 L 295.5 442 L 292.5 445 L 292.5 446 L 289.5 449 L 289.5 450 L 286.5 453 L 286.5 454 L 284.5 456 L 284.5 457 L 282.5 459 L 282.5 460 L 280.5 462 L 280.5 463 L 278.5 465 L 278.5 466 L 276.5 468 L 276.5 469 L 274.5 471 L 274.5 472 L 272.5 474 L 272.5 475 L 271.5 476 L 271.5 477 L 269.5 479 L 269.5 480 L 268.5 481 L 268.5 482 L 266.5 484 L 266.5 485 L 265.5 486 L 265.5 488 L 263.5 490 L 263.5 491 L 262.5 492 L 262.5 493 L 261.5 494 L 261.5 495 L 260.5 496 L 260.5 497 L 259.5 498 L 259.5 500 L 258.5 501 L 258.5 502 L 257.5 503 L 257.5 504 L 256.5 505 L 256.5 506 L 255.5 507 L 255.5 508 L 254.5 509 L 254.5 511 L 253.5 512 L 253.5 513 L 252.5 514 L 252.5 516 L 251.5 517 L 251.5 519 L 250.5 520 L 250.5 521 L 249.5 522 L 249.5 524 L 248.5 525 L 248.5 527 L 247.5 528 L 247.5 530 L 246.5 531 L 246.5 533 L 245.5 534 L 245.5 536 L 244.5 537 L 244.5 539 L 243.5 540 L 243.5 543 L 242.5 544 L 242.5 547 L 241.5 548 L 241.5 552 L 240.5 553 L 240.5 557 L 239.5 558 L 239.5 565 L 238.5 566 L 238.5 596 L 239.5 597 L 239.5 602 L 240.5 603 L 240.5 607 L 241.5 608 L 241.5 611 L 242.5 612 L 242.5 613 L 243.5 614 L 243.5 616 L 244.5 617 L 244.5 619 L 245.5 620 L 245.5 621 L 246.5 622 L 246.5 624 L 247.5 625 L 247.5 626 L 248.5 627 L 248.5 628 L 249.5 629 L 249.5 630 L 250.5 631 L 250.5 632 L 251.5 633 L 251.5 634 L 253.5 636 L 253.5 637 L 254.5 638 L 254.5 639 L 256.5 641 L 256.5 642 L 258.5 644 L 258.5 645 L 263.5 650 L 263.5 651 L 271 658.5 L 272 658.5 L 277 663.5 L 278 663.5 L 280 665.5 L 281 665.5 L 283 667.5 L 284 667.5 L 285 668.5 L 286 668.5 L 288 670.5 L 289 670.5 L 290 671.5 L 291 671.5 L 292 672.5 L 293 672.5 L 294 673.5 L 296 673.5 L 297 674.5 L 298 674.5 L 299 675.5 L 301 675.5 L 302 676.5 L 304 676.5 L 305 677.5 L 307 677.5 L 308 678.5 L 310 678.5 L 311 679.5 L 315 679.5 L 316 680.5 L 321 680.5 L 322 681.5 L 346 681.5 L 347 680.5 L 352 680.5 L 353 679.5 L 357 679.5 L 358 678.5 L 362 678.5 L 363 677.5 L 365 677.5 L 366 676.5 L 368 676.5 L 369 675.5 L 370 675.5 L 371 674.5 L 373 674.5 L 374 673.5 L 375 673.5 L 376 672.5 L 377 672.5 L 378 671.5 L 380 671.5 L 381 670.5 L 382 670.5 L 384 668.5 L 385 668.5 L 386 667.5 L 387 667.5 L 388 666.5 L 389 666.5 L 391 664.5 L 392 664.5 L 393 663.5 L 394 663.5 L 396 661.5 L 397 661.5 L 399 659.5 L 400 659.5 L 403 656.5 L 404 656.5 L 408 652.5 L 409 652.5 L 416 645.5 L 417 645.5 L 434.5 628 L 434.5 627 L 454.5 607 L 454.5 606 L 466.5 594 L 466.5 593 L 471 588.5 L 472 588.5 L 477.5 594 L 477.5 595 L 487.5 605 L 487.5 606 L 506.5 625 L 506.5 626 L 508.5 628 L 493.5 643 L 493.5 644 L 484.5 653 L 484.5 654 L 460.5 678 L 460.5 679 L 456 683.5 L 455 683.5 L 448 690.5 L 447 690.5 L 441 696.5 L 440 696.5 L 435 701.5 L 434 701.5 L 431 704.5 L 430 704.5 L 427 707.5 L 426 707.5 L 423 710.5 L 422 710.5 L 420 712.5 L 419 712.5 L 417 714.5 L 416 714.5 L 415 715.5 L 414 715.5 L 413 716.5 L 412 716.5 L 410 718.5 L 409 718.5 L 407 720.5 L 406 720.5 L 405 721.5 L 404 721.5 L 403 722.5 L 402 722.5 L 401 723.5 L 400 723.5 L 399 724.5 L 398 724.5 L 397 725.5 L 396 725.5 L 395 726.5 L 393 726.5 L 392 727.5 L 391 727.5 L 390 728.5 L 389 728.5 L 388 729.5 L 386 729.5 L 385 730.5 L 383 730.5 L 382 731.5 L 380 731.5 L 379 732.5 L 377 732.5 L 376 733.5 L 374 733.5 L 373 734.5 L 370 734.5 L 369 735.5 L 366 735.5 L 365 736.5 L 362 736.5 L 361 737.5 L 357 737.5 L 356 738.5 L 350 738.5 L 349 739.5 L 334 739.5 L 333.5 740 Z M 861 588.5 L 860.5 589 L 860.5 601 L 859.5 602 L 859.5 609 L 858.5 610 L 858.5 616 L 857.5 617 L 857.5 621 L 856.5 622 L 856.5 625 L 855.5 626 L 855.5 628 L 854.5 629 L 854.5 632 L 853.5 633 L 853.5 635 L 852.5 636 L 852.5 638 L 851.5 639 L 851.5 640 L 850.5 641 L 850.5 643 L 849.5 644 L 849.5 645 L 848.5 646 L 848.5 648 L 847.5 649 L 847.5 650 L 846.5 651 L 846.5 652 L 845.5 653 L 845.5 654 L 844.5 655 L 844.5 656 L 843.5 657 L 843.5 659 L 842.5 660 L 842.5 661 L 840.5 663 L 840.5 664 L 838.5 666 L 838.5 667 L 837.5 668 L 837.5 669 L 835.5 671 L 835.5 672 L 833.5 674 L 833.5 675 L 830.5 678 L 830.5 679 L 827.5 682 L 827.5 683 L 822.5 688 L 822.5 689 L 809 702.5 L 808 702.5 L 802 708.5 L 801 708.5 L 798 711.5 L 797 711.5 L 795 713.5 L 794 713.5 L 792 715.5 L 791 715.5 L 789 717.5 L 788 717.5 L 787 718.5 L 786 718.5 L 784 720.5 L 783 720.5 L 782 721.5 L 781 721.5 L 780 722.5 L 779 722.5 L 778 723.5 L 777 723.5 L 775 725.5 L 773 725.5 L 772 726.5 L 771 726.5 L 770 727.5 L 769 727.5 L 768 728.5 L 767 728.5 L 766 729.5 L 764 729.5 L 763 730.5 L 762 730.5 L 761 731.5 L 759 731.5 L 758 732.5 L 756 732.5 L 755 733.5 L 753 733.5 L 752 734.5 L 749 734.5 L 748 735.5 L 746 735.5 L 745 736.5 L 741 736.5 L 740 737.5 L 735 737.5 L 734 738.5 L 727 738.5 L 726 739.5 L 697 739.5 L 696 738.5 L 691 738.5 L 690 737.5 L 685 737.5 L 684 736.5 L 680 736.5 L 679 735.5 L 676 735.5 L 675 734.5 L 672 734.5 L 671 733.5 L 669 733.5 L 668 732.5 L 665 732.5 L 664 731.5 L 662 731.5 L 661 730.5 L 659 730.5 L 658 729.5 L 656 729.5 L 655 728.5 L 654 728.5 L 653 727.5 L 652 727.5 L 651 726.5 L 649 726.5 L 648 725.5 L 647 725.5 L 646 724.5 L 645 724.5 L 644 723.5 L 643 723.5 L 642 722.5 L 641 722.5 L 639 720.5 L 638 720.5 L 637 719.5 L 636 719.5 L 635 718.5 L 634 718.5 L 633 717.5 L 632 717.5 L 631 716.5 L 630 716.5 L 628 714.5 L 627 714.5 L 625 712.5 L 624 712.5 L 623 711.5 L 622 711.5 L 620 709.5 L 619 709.5 L 616 706.5 L 615 706.5 L 612 703.5 L 611 703.5 L 608 700.5 L 607 700.5 L 602 695.5 L 601 695.5 L 596 690.5 L 595 690.5 L 562.5 658 L 562.5 657 L 543.5 638 L 543.5 637 L 532.5 626 L 532.5 625 L 512.5 605 L 512.5 604 L 488.5 580 L 488.5 579 L 478.5 569 L 478.5 568 L 473 562.5 L 472 562.5 L 471.5 562 L 471.5 561 L 460.5 550 L 460.5 549 L 443.5 532 L 443.5 531 L 442.5 530 L 442.5 529 L 455.5 516 L 455.5 515 L 472.5 498 L 472.5 497 L 479 490.5 L 481 490.5 L 481.5 491 L 481.5 492 L 496.5 507 L 496.5 508 L 512.5 524 L 512.5 525 L 531.5 544 L 531.5 545 L 543.5 557 L 543.5 558 L 561.5 576 L 561.5 577 L 578.5 594 L 578.5 595 L 590.5 607 L 590.5 608 L 612.5 630 L 612.5 631 L 622 640.5 L 623 640.5 L 632 649.5 L 633 649.5 L 638 654.5 L 639 654.5 L 643 658.5 L 644 658.5 L 646 660.5 L 647 660.5 L 649 662.5 L 650 662.5 L 652 664.5 L 653 664.5 L 654 665.5 L 655 665.5 L 656 666.5 L 657 666.5 L 658 667.5 L 659 667.5 L 660 668.5 L 661 668.5 L 662 669.5 L 663 669.5 L 664 670.5 L 665 670.5 L 667 672.5 L 669 672.5 L 670 673.5 L 671 673.5 L 672 674.5 L 674 674.5 L 675 675.5 L 676 675.5 L 677 676.5 L 680 676.5 L 681 677.5 L 683 677.5 L 684 678.5 L 687 678.5 L 688 679.5 L 692 679.5 L 693 680.5 L 699 680.5 L 700 681.5 L 724 681.5 L 725 680.5 L 730 680.5 L 731 679.5 L 734 679.5 L 735 678.5 L 738 678.5 L 739 677.5 L 741 677.5 L 742 676.5 L 743 676.5 L 744 675.5 L 746 675.5 L 747 674.5 L 748 674.5 L 749 673.5 L 750 673.5 L 751 672.5 L 753 672.5 L 755 670.5 L 756 670.5 L 757 669.5 L 758 669.5 L 759 668.5 L 760 668.5 L 762 666.5 L 763 666.5 L 765 664.5 L 766 664.5 L 770 660.5 L 771 660.5 L 782.5 649 L 782.5 648 L 786.5 644 L 786.5 643 L 788.5 641 L 788.5 640 L 790.5 638 L 790.5 637 L 792.5 635 L 792.5 634 L 793.5 633 L 793.5 631 L 795.5 629 L 795.5 627 L 796.5 626 L 796.5 625 L 797.5 624 L 797.5 623 L 798.5 622 L 798.5 620 L 799.5 619 L 799.5 617 L 800.5 616 L 800.5 615 L 801.5 614 L 801.5 611 L 802.5 610 L 802.5 607 L 803.5 606 L 803.5 602 L 804.5 601 L 804.5 593 L 805.5 592 L 805.5 589 L 804.5 588 L 804.5 587 L 805.5 586 L 805.5 581 L 804.5 580 L 804.5 570 L 803.5 569 L 803.5 564 L 802.5 563 L 806.5 559 L 806.5 558 L 809.5 555 L 809.5 554 L 812.5 551 L 812.5 550 L 816.5 546 L 816.5 545 L 818.5 543 L 818.5 542 L 821.5 539 L 821.5 538 L 824.5 535 L 824.5 534 L 826.5 532 L 826.5 531 L 828.5 529 L 828.5 528 L 830.5 526 L 830.5 525 L 832.5 523 L 832.5 522 L 834.5 520 L 834.5 519 L 835.5 518 L 835.5 517 L 837.5 515 L 837.5 514 L 839.5 512 L 839.5 511 L 840.5 510 L 840.5 509 L 841.5 508 L 841.5 507 L 843 505.5 L 844 505.5 L 845.5 507 L 845.5 509 L 846.5 510 L 846.5 511 L 847.5 512 L 847.5 513 L 848.5 514 L 848.5 515 L 849.5 516 L 849.5 518 L 850.5 519 L 850.5 521 L 851.5 522 L 851.5 525 L 852.5 526 L 852.5 528 L 853.5 529 L 853.5 532 L 854.5 533 L 854.5 536 L 855.5 537 L 855.5 541 L 856.5 542 L 856.5 546 L 857.5 547 L 857.5 551 L 858.5 552 L 858.5 557 L 859.5 558 L 859.5 562 L 860.5 563 L 860.5 573 L 861 573.5 Z M 345.5 217 L 346 217.5 L 356 217.5 L 357 218.5 L 360 218.5 L 361 219.5 L 366 219.5 L 367 220.5 L 371 220.5 L 372 221.5 L 374 221.5 L 375 222.5 L 378 222.5 L 379 223.5 L 381 223.5 L 382 224.5 L 385 224.5 L 386 225.5 L 388 225.5 L 389 226.5 L 390 226.5 L 391 227.5 L 393 227.5 L 394 228.5 L 395 228.5 L 396 229.5 L 397 229.5 L 398 230.5 L 400 230.5 L 401 231.5 L 402 231.5 L 403 232.5 L 404 232.5 L 405 233.5 L 406 233.5 L 407 234.5 L 408 234.5 L 409 235.5 L 410 235.5 L 411 236.5 L 412 236.5 L 414 238.5 L 415 238.5 L 416 239.5 L 417 239.5 L 419 241.5 L 420 241.5 L 421 242.5 L 422 242.5 L 425 245.5 L 426 245.5 L 428 247.5 L 429 247.5 L 431 249.5 L 432 249.5 L 435 252.5 L 436 252.5 L 439 255.5 L 440 255.5 L 445 260.5 L 446 260.5 L 457 271.5 L 458 271.5 L 485.5 299 L 485.5 300 L 512.5 327 L 512.5 328 L 537.5 353 L 537.5 354 L 541 357.5 L 542 357.5 L 547.5 363 L 547.5 364 L 563.5 380 L 563.5 381 L 587.5 405 L 587.5 406 L 602.5 421 L 602.5 422 L 596.5 428 L 596.5 429 L 591 434.5 L 590 434.5 L 588.5 436 L 588.5 437 L 569.5 456 L 569.5 457 L 566 460.5 L 565 460.5 L 554.5 450 L 554.5 449 L 530.5 425 L 530.5 424 L 527 420.5 L 526 420.5 L 525.5 420 L 525.5 419 L 525 418.5 L 524 418.5 L 523.5 418 L 523.5 417 L 483.5 377 L 483.5 376 L 416 308.5 L 415 308.5 L 411 304.5 L 410 304.5 L 409 302.5 L 408 302.5 L 404 298.5 L 403 298.5 L 401 296.5 L 400 296.5 L 398 294.5 L 397 294.5 L 395 292.5 L 394 292.5 L 392 290.5 L 391 290.5 L 390 289.5 L 389 289.5 L 387 287.5 L 386 287.5 L 385 286.5 L 383 286.5 L 382 285.5 L 381 285.5 L 380 284.5 L 379 284.5 L 378 283.5 L 377 283.5 L 376 282.5 L 374 282.5 L 373 281.5 L 372 281.5 L 371 280.5 L 369 280.5 L 368 279.5 L 366 279.5 L 365 278.5 L 362 278.5 L 361 277.5 L 358 277.5 L 357 276.5 L 352 276.5 L 351 275.5 L 344 275.5 L 343 274.5 L 328 274.5 L 327 275.5 L 321 275.5 L 320 276.5 L 316 276.5 L 315 277.5 L 312 277.5 L 311 278.5 L 309 278.5 L 308 279.5 L 306 279.5 L 305 280.5 L 303 280.5 L 302 281.5 L 300 281.5 L 299 282.5 L 298 282.5 L 297 283.5 L 296 283.5 L 295 284.5 L 294 284.5 L 293 285.5 L 292 285.5 L 291 286.5 L 290 286.5 L 289 287.5 L 288 287.5 L 286 289.5 L 285 289.5 L 283 291.5 L 282 291.5 L 279 294.5 L 278 294.5 L 274 298.5 L 273 298.5 L 262.5 309 L 262.5 310 L 258.5 314 L 258.5 315 L 256.5 317 L 256.5 318 L 255.5 319 L 255.5 320 L 253.5 322 L 253.5 323 L 252.5 324 L 252.5 325 L 251.5 326 L 251.5 327 L 250.5 328 L 250.5 329 L 249.5 330 L 249.5 331 L 248.5 332 L 248.5 333 L 247.5 334 L 247.5 335 L 246.5 336 L 246.5 338 L 245.5 339 L 245.5 340 L 244.5 341 L 244.5 343 L 243.5 344 L 243.5 347 L 242.5 348 L 242.5 351 L 241.5 352 L 241.5 356 L 240.5 357 L 240.5 368 L 239.5 369 L 239.5 377 L 240.5 378 L 240.5 389 L 241.5 390 L 241.5 393 L 240.5 394 L 240.5 395 L 234.5 401 L 234.5 402 L 230.5 406 L 230.5 407 L 226.5 411 L 226.5 412 L 222.5 416 L 222.5 417 L 219.5 420 L 219.5 421 L 216.5 424 L 216.5 425 L 214.5 427 L 214.5 428 L 212.5 430 L 212.5 431 L 210.5 433 L 210.5 434 L 208.5 436 L 208.5 437 L 206.5 439 L 206.5 440 L 205.5 441 L 205.5 442 L 203.5 444 L 203.5 445 L 201.5 447 L 201.5 448 L 201 448.5 L 199 448.5 L 198.5 448 L 198.5 447 L 197.5 446 L 197.5 445 L 196.5 444 L 196.5 443 L 195.5 442 L 195.5 441 L 194.5 440 L 194.5 439 L 193.5 438 L 193.5 437 L 192.5 436 L 192.5 435 L 191.5 434 L 191.5 433 L 190.5 432 L 190.5 430 L 189.5 429 L 189.5 427 L 188.5 426 L 188.5 424 L 187.5 423 L 187.5 421 L 186.5 420 L 186.5 418 L 185.5 417 L 185.5 414 L 184.5 413 L 184.5 411 L 183.5 410 L 183.5 405 L 182.5 404 L 182.5 400 L 181.5 399 L 181.5 394 L 180.5 393 L 180.5 385 L 180 384.5 Z M 472 391.5 L 473 391.5 L 475.5 394 L 475.5 395 L 497.5 417 L 497.5 418 L 509.5 430 L 497.5 442 L 497.5 443 L 485.5 455 L 485.5 456 L 466.5 475 L 466.5 476 L 451.5 491 L 451.5 492 L 434.5 509 L 434.5 510 L 413.5 531 L 413.5 532 L 390.5 555 L 390.5 556 L 366 580.5 L 365 580.5 L 363 582.5 L 362 582.5 L 359 585.5 L 358 585.5 L 357 586.5 L 356 586.5 L 354 588.5 L 353 588.5 L 352 589.5 L 350 589.5 L 349 590.5 L 348 590.5 L 347 591.5 L 346 591.5 L 345 592.5 L 343 592.5 L 342 593.5 L 340 593.5 L 339 594.5 L 334 594.5 L 333 595.5 L 315 595.5 L 314 594.5 L 310 594.5 L 309 593.5 L 307 593.5 L 306 592.5 L 304 592.5 L 303 591.5 L 302 591.5 L 301 590.5 L 299 590.5 L 298 589.5 L 297 589.5 L 296 588.5 L 295 588.5 L 294 587.5 L 293 587.5 L 291 585.5 L 290 585.5 L 288 583.5 L 287 583.5 L 285 581.5 L 284 581.5 L 269.5 567 L 269.5 566 L 264.5 561 L 264.5 560 L 262.5 558 L 262.5 557 L 261.5 556 L 261.5 555 L 260.5 554 L 260.5 553 L 259.5 552 L 260.5 551 L 260.5 547 L 261.5 546 L 261.5 543 L 262.5 542 L 262.5 538 L 263.5 537 L 263.5 536 L 264.5 535 L 264.5 533 L 265.5 532 L 265.5 530 L 266.5 529 L 266.5 527 L 267.5 526 L 267.5 525 L 268.5 524 L 268.5 522 L 269.5 521 L 269.5 520 L 270.5 519 L 270.5 518 L 271.5 517 L 271.5 516 L 272.5 515 L 272.5 514 L 273.5 513 L 273.5 511 L 274.5 510 L 274.5 509 L 276.5 507 L 276.5 506 L 277.5 505 L 277.5 504 L 278.5 503 L 278.5 502 L 280.5 500 L 280.5 499 L 281 498.5 L 282 498.5 L 293.5 510 L 293.5 511 L 294 511.5 L 295 511.5 L 297.5 514 L 297.5 515 L 310.5 528 L 310.5 529 L 316 534.5 L 317 534.5 L 319 536.5 L 320 536.5 L 321 537.5 L 322 537.5 L 323 538.5 L 329 538.5 L 330 537.5 L 332 537.5 L 335 534.5 L 336 534.5 L 347.5 523 L 347.5 522 L 368.5 501 L 368.5 500 L 387.5 481 L 387.5 480 L 405.5 462 L 405.5 461 L 406 460.5 L 407 460.5 L 409.5 458 L 409.5 457 L 425.5 441 L 425.5 440 L 431 434.5 L 432 434.5 L 432.5 434 L 432.5 433 L 444.5 421 L 444.5 420 L 466.5 398 L 466.5 397 L 472 391.5 Z M 714 357.5 L 728 357.5 L 729 358.5 L 734 358.5 L 735 359.5 L 738 359.5 L 739 360.5 L 741 360.5 L 742 361.5 L 744 361.5 L 745 362.5 L 746 362.5 L 747 363.5 L 748 363.5 L 749 364.5 L 750 364.5 L 751 365.5 L 752 365.5 L 754 367.5 L 755 367.5 L 757 369.5 L 758 369.5 L 760 371.5 L 761 371.5 L 765 375.5 L 766 375.5 L 768.5 378 L 768.5 379 L 778.5 389 L 778.5 390 L 780.5 392 L 780.5 393 L 782.5 395 L 782.5 396 L 783.5 397 L 783.5 405 L 782.5 406 L 782.5 409 L 781.5 410 L 781.5 413 L 780.5 414 L 780.5 417 L 779.5 418 L 779.5 421 L 778.5 422 L 778.5 424 L 777.5 425 L 777.5 427 L 776.5 428 L 776.5 430 L 775.5 431 L 775.5 432 L 774.5 433 L 774.5 435 L 773.5 436 L 773.5 437 L 772.5 438 L 772.5 440 L 771.5 441 L 771.5 442 L 770.5 443 L 770.5 444 L 769.5 445 L 769.5 446 L 768.5 447 L 768.5 448 L 766.5 450 L 766.5 451 L 765.5 452 L 765.5 453 L 765 453.5 L 763 453.5 L 754.5 445 L 754.5 444 L 736.5 426 L 736.5 425 L 731 419.5 L 730 419.5 L 726 415.5 L 725 415.5 L 724 414.5 L 723 414.5 L 722 413.5 L 716 413.5 L 715 414.5 L 714 414.5 L 713 415.5 L 712 415.5 L 673.5 454 L 673.5 455 L 669 459.5 L 668 459.5 L 664.5 463 L 664.5 464 L 635.5 493 L 635.5 494 L 613.5 516 L 613.5 517 L 588.5 542 L 588.5 543 L 572 559.5 L 571 559.5 L 563.5 552 L 563.5 551 L 546.5 534 L 546.5 533 L 535.5 522 L 535.5 521 L 542.5 514 L 542.5 513 L 543 512.5 L 544 512.5 L 548.5 508 L 548.5 507 L 564.5 491 L 564.5 490 L 588.5 466 L 588.5 465 L 612.5 441 L 612.5 440 L 631.5 421 L 631.5 420 L 661.5 390 L 661.5 389 L 671 379.5 L 672 379.5 L 679 372.5 L 680 372.5 L 683 369.5 L 684 369.5 L 686 367.5 L 687 367.5 L 688 366.5 L 689 366.5 L 691 364.5 L 692 364.5 L 693 363.5 L 694 363.5 L 695 362.5 L 697 362.5 L 698 361.5 L 699 361.5 L 700 360.5 L 703 360.5 L 704 359.5 L 707 359.5 L 708 358.5 L 713 358.5 L 714 357.5 Z M 332.5 740 L 332 739.5 L 318 739.5 L 317 738.5 L 309 738.5 L 308 737.5 L 303 737.5 L 302 736.5 L 298 736.5 L 297 735.5 L 294 735.5 L 293 734.5 L 291 734.5 L 290 733.5 L 287 733.5 L 286 732.5 L 284 732.5 L 283 731.5 L 282 731.5 L 281 730.5 L 279 730.5 L 278 729.5 L 277 729.5 L 276 728.5 L 274 728.5 L 273 727.5 L 272 727.5 L 271 726.5 L 269 726.5 L 268 725.5 L 267 725.5 L 266 724.5 L 265 724.5 L 264 723.5 L 263 723.5 L 261 721.5 L 260 721.5 L 259 720.5 L 258 720.5 L 257 719.5 L 256 719.5 L 255 718.5 L 254 718.5 L 252 716.5 L 251 716.5 L 249 714.5 L 248 714.5 L 246 712.5 L 245 712.5 L 242 709.5 L 241 709.5 L 238 706.5 L 237 706.5 L 231 700.5 L 230 700.5 L 219.5 690 L 219.5 689 L 213.5 683 L 213.5 682 L 210.5 679 L 210.5 678 L 207.5 675 L 207.5 674 L 204.5 671 L 204.5 670 L 202.5 668 L 202.5 667 L 201.5 666 L 201.5 665 L 200.5 664 L 200.5 663 L 198.5 661 L 198.5 660 L 197.5 659 L 197.5 658 L 196.5 657 L 196.5 656 L 195.5 655 L 195.5 654 L 194.5 653 L 194.5 652 L 193.5 651 L 193.5 650 L 192.5 649 L 192.5 647 L 191.5 646 L 191.5 645 L 190.5 644 L 190.5 642 L 189.5 641 L 189.5 640 L 188.5 639 L 188.5 638 L 187.5 637 L 187.5 635 L 186.5 634 L 186.5 631 L 185.5 630 L 185.5 628 L 184.5 627 L 184.5 624 L 183.5 623 L 183.5 620 L 182.5 619 L 182.5 614 L 181.5 613 L 181.5 607 L 180.5 606 L 180.5 599 L 180 598.5 Z M 180 358.5 L 180.5 358 L 180.5 351 L 181.5 350 L 181.5 345 L 182.5 344 L 182.5 340 L 183.5 339 L 183.5 335 L 184.5 334 L 184.5 331 L 185.5 330 L 185.5 327 L 186.5 326 L 186.5 324 L 187.5 323 L 187.5 321 L 188.5 320 L 188.5 318 L 189.5 317 L 189.5 315 L 190.5 314 L 190.5 313 L 191.5 312 L 191.5 311 L 192.5 310 L 192.5 308 L 194.5 306 L 194.5 305 L 195.5 304 L 195.5 303 L 196.5 302 L 196.5 301 L 197.5 300 L 197.5 299 L 198.5 298 L 198.5 297 L 199.5 296 L 199.5 295 L 200.5 294 L 200.5 293 L 202.5 291 L 202.5 290 L 203.5 289 L 203.5 288 L 205.5 286 L 205.5 285 L 206.5 284 L 206.5 283 L 210.5 279 L 210.5 278 L 214.5 274 L 214.5 273 L 219.5 268 L 219.5 267 L 226 260.5 L 227 260.5 L 235 252.5 L 236 252.5 L 240 248.5 L 241 248.5 L 244 245.5 L 245 245.5 L 247 243.5 L 248 243.5 L 250 241.5 L 251 241.5 L 253 239.5 L 254 239.5 L 255 238.5 L 256 238.5 L 258 236.5 L 259 236.5 L 260 235.5 L 261 235.5 L 262 234.5 L 263 234.5 L 265 232.5 L 266 232.5 L 267 231.5 L 269 231.5 L 270 230.5 L 271 230.5 L 272 229.5 L 274 229.5 L 275 228.5 L 276 228.5 L 277 227.5 L 279 227.5 L 280 226.5 L 281 226.5 L 282 225.5 L 284 225.5 L 285 224.5 L 287 224.5 L 288 223.5 L 290 223.5 L 291 222.5 L 294 222.5 L 295 221.5 L 297 221.5 L 298 220.5 L 302 220.5 L 303 219.5 L 308 219.5 L 309 218.5 L 315 218.5 L 316 217.5 L 327 217.5 L 327.5 217 Z M 630 528.5 L 630.5 529 L 630 529.5 L 629.5 529 L 630 528.5 Z"/>
</svg>
